<svg width="64" height="64" viewBox="0 0 64 64" fill="none" xmlns="http://www.w3.org/2000/svg">
<path d="M58.375 20.1526H56.4999V9.30962C56.4999 8.27412 55.6604 7.43463 54.6249 7.43463C53.5894 7.43463 52.7499 8.27412 52.7499 9.30962V15.6512C51.777 14.1254 50.6247 12.6994 49.3026 11.4C44.6931 6.86987 38.5484 4.375 32 4.375C25.4469 4.375 19.3 6.87013 14.6921 11.4009C13.3721 12.6986 12.2216 14.1229 11.25 15.647V9.30962C11.25 8.27412 10.4105 7.43463 9.375 7.43463C8.3395 7.43463 7.5 8.27412 7.5 9.30962V20.1526H5.625C2.52338 20.1526 0 22.676 0 25.7776V33.4026C0 36.5042 2.52338 39.0276 5.625 39.0276H9.52662C11.7402 42.3961 15.5521 44.625 19.8754 44.625H44.1246C48.4479 44.625 52.2598 42.3961 54.4735 39.0276H58.375C59.0324 39.0276 59.6631 38.9132 60.25 38.7051V44.5621C60.25 48.7294 56.643 52.25 52.3732 52.25H47.0947C46.3571 50.0029 44.2406 48.375 41.7499 48.375H37.6249C34.5233 48.375 31.9999 50.8984 31.9999 54C31.9999 57.1016 34.5233 59.625 37.6249 59.625H41.7499C44.1472 59.625 46.198 58.1169 47.0061 56H52.3731C58.6756 56 64 50.7621 64 44.5621V25.7776C64 22.676 61.4766 20.1526 58.375 20.1526ZM41.75 55.875H37.625C36.5911 55.875 35.75 55.0339 35.75 54C35.75 52.9661 36.5911 52.125 37.625 52.125H41.75C42.7839 52.125 43.625 52.9661 43.625 54C43.625 55.0339 42.7839 55.875 41.75 55.875ZM5.625 35.2776C4.59113 35.2776 3.75 34.4365 3.75 33.4026V25.7776C3.75 24.7437 4.59113 23.9026 5.625 23.9026H7.5V32.2496C7.5 33.294 7.63062 34.3083 7.87537 35.2776H5.625ZM44.1246 40.875H19.8754C16.5936 40.875 13.7348 39.0324 12.2773 36.3278C11.624 35.1045 11.2495 33.726 11.25 32.2496V28.6204C11.2526 17.1272 20.3661 8.125 32 8.125C43.4385 8.125 52.7446 17.3162 52.7499 28.6159L52.75 32.2496C52.75 37.0056 48.8808 40.875 44.1246 40.875ZM58.375 35.2776H56.1246C56.3694 34.3083 56.5 33.2939 56.5 32.2496L56.4999 23.9026H58.375C59.4089 23.9026 60.25 24.7437 60.25 25.7776V33.4026C60.25 34.4365 59.4089 35.2776 58.375 35.2776Z" fill="#18a34d"/>
<path d="M24.7295 25.25C23.694 25.25 22.8545 26.0895 22.8545 27.125V28.5C22.8545 29.5355 23.694 30.375 24.7295 30.375C25.765 30.375 26.6045 29.5355 26.6045 28.5V27.125C26.6045 26.0894 25.7651 25.25 24.7295 25.25Z" fill="#18a34d"/>
<path d="M39.2705 25.25C38.235 25.25 37.3955 26.0895 37.3955 27.125V28.5C37.3955 29.5355 38.235 30.375 39.2705 30.375C40.306 30.375 41.1455 29.5355 41.1455 28.5V27.125C41.1455 26.0894 40.306 25.25 39.2705 25.25Z" fill="#18a34d"/>
<path d="M39.6875 18.5H24.3125C19.1776 18.5 15 22.6775 15 27.8125C15 32.9474 19.1775 37.125 24.3125 37.125H39.6875C44.8224 37.125 49 32.9475 49 27.8125C49 22.6775 44.8224 18.5 39.6875 18.5ZM39.6875 33.3749H24.3125C21.2454 33.3749 18.75 30.8796 18.75 27.8124C18.75 24.7452 21.2452 22.2499 24.3125 22.2499H39.6875C42.7546 22.2499 45.25 24.7451 45.25 27.8124C45.25 30.8796 42.7546 33.3749 39.6875 33.3749Z" fill="#18a34d"/>
</svg>
